<?xml version="1.0" encoding="UTF-8" standalone="no"?>
<!-- Created with Inkscape (http://www.inkscape.org/) -->

<svg
   width="72.447433mm"
   height="72.447433mm"
   viewBox="0 0 72.447434 72.447433"
   version="1.1"
   id="svg5"
   inkscape:version="1.2.2 (b0a84865, 2022-12-01)"
   sodipodi:docname="CompMatMapLogo.svg"
   xmlns:inkscape="http://www.inkscape.org/namespaces/inkscape"
   xmlns:sodipodi="http://sodipodi.sourceforge.net/DTD/sodipodi-0.dtd"
   xmlns="http://www.w3.org/2000/svg"
   xmlns:svg="http://www.w3.org/2000/svg">
  <sodipodi:namedview
     id="namedview7"
     pagecolor="#ffffff"
     bordercolor="#000000"
     borderopacity="0.25"
     inkscape:showpageshadow="2"
     inkscape:pageopacity="0.0"
     inkscape:pagecheckerboard="0"
     inkscape:deskcolor="#d1d1d1"
     inkscape:document-units="mm"
     showgrid="false"
     inkscape:zoom="1.2946631"
     inkscape:cx="56.385325"
     inkscape:cy="188.07982"
     inkscape:window-width="1710"
     inkscape:window-height="1027"
     inkscape:window-x="0"
     inkscape:window-y="43"
     inkscape:window-maximized="0"
     inkscape:current-layer="layer1" />
  <defs
     id="defs2" />
  <g
     inkscape:label="Layer 1"
     inkscape:groupmode="layer"
     id="layer1"
     transform="translate(-32.363153,-21.351495)">
    <circle
       style="fill:#000000;fill-opacity:0;stroke:#000000;stroke-width:3;stroke-linejoin:round;stroke-dasharray:none;stop-color:#000000"
       id="path234"
       cx="68.586868"
       cy="57.575211"
       r="30.203388" />
    <path
       style="fill:#000000;fill-opacity:1;stroke:#000000;stroke-width:1;stroke-linejoin:round;stroke-dasharray:none;stroke-dashoffset:0;stop-color:#000000"
       d="M 43.965836,57.575211 Z"
       id="path1291" />
    <path
       style="fill:#000000;fill-opacity:1;stroke:#000000;stroke-width:2;stroke-linejoin:round;stroke-dasharray:none;stroke-dashoffset:0;stop-color:#000000"
       d="m 38.383479,57.575211 h 5.582357"
       id="path1295" />
    <path
       style="fill:#000000;fill-opacity:1;stroke:#000000;stroke-width:2;stroke-linejoin:round;stroke-dasharray:none;stroke-dashoffset:0;stop-color:#000000"
       d="m 93.2079,57.575211 h 5.582357"
       id="path1297" />
    <path
       style="fill:#000000;fill-opacity:1;stroke:#000000;stroke-width:1;stroke-linejoin:round;stroke-dasharray:none;stroke-dashoffset:0;stop-color:#000000"
       d="m 68.586868,82.196242 v 5.582357"
       id="path1299" />
    <path
       style="fill:#000000;fill-opacity:1;stroke:#000000;stroke-width:2;stroke-linejoin:round;stroke-dasharray:none;stroke-dashoffset:0;stop-color:#000000"
       d="m 68.586868,82.196242 v 5.582357"
       id="path1301" />
    <g
       aria-label="1001 1101 1011 "
       id="text3943"
       style="font-size:5.04473px;line-height:5.64885px;font-family:'IBM Plex Mono';-inkscape-font-specification:'IBM Plex Mono';text-align:center;text-anchor:middle;stroke:#000000;stroke-width:0;stroke-linejoin:round;stop-color:#000000"
       transform="matrix(0.72112567,0,0,0.72112568,-41.369531,8.7183476)">
      <path
         d="m 146.56186,35.265255 v -0.610412 h 0.9484 v -2.360934 h -0.0454 l -0.71635,0.93832 -0.48429,-0.378355 0.84247,-1.109841 h 1.16028 v 2.91081 h 0.74662 v 0.610412 z"
         style="font-weight:bold;stroke-width:0"
         id="path3945" />
      <path
         d="m 150.6279,35.325792 q -0.32286,0 -0.55492,-0.121074 -0.23206,-0.126118 -0.3834,-0.358176 -0.15134,-0.232057 -0.22197,-0.570054 -0.0706,-0.337997 -0.0706,-0.771844 0,-0.428802 0.0706,-0.766799 0.0706,-0.343042 0.22197,-0.575099 0.15134,-0.232058 0.3834,-0.353131 0.23206,-0.126118 0.55492,-0.126118 0.32286,0 0.55492,0.126118 0.23206,0.121073 0.3834,0.353131 0.15134,0.232057 0.22197,0.575099 0.0706,0.337997 0.0706,0.766799 0,0.433847 -0.0706,0.771844 -0.0706,0.337997 -0.22197,0.570054 -0.15134,0.232058 -0.3834,0.358176 -0.23206,0.121074 -0.55492,0.121074 z m 0,-0.368266 q 0.21188,0 0.36322,-0.08072 0.15134,-0.08576 0.24215,-0.237103 0.0958,-0.151341 0.14125,-0.36322 0.0454,-0.216924 0.0454,-0.484294 V 33.21709 q 0,-0.262326 -0.0454,-0.47925 -0.0454,-0.216923 -0.14125,-0.368265 -0.0908,-0.151342 -0.24215,-0.232058 -0.15134,-0.08576 -0.36322,-0.08576 -0.21188,0 -0.36322,0.08576 -0.15134,0.08072 -0.24719,0.232058 -0.0908,0.151342 -0.13621,0.368265 -0.0454,0.216924 -0.0454,0.47925 v 0.575099 q 0,0.26737 0.0454,0.484294 0.0454,0.211879 0.13621,0.36322 0.0958,0.151342 0.24719,0.237103 0.15134,0.08072 0.36322,0.08072 z m 0,-1.155243 q -0.17657,0 -0.24719,-0.07063 -0.0656,-0.07063 -0.0656,-0.171521 v -0.110984 q 0,-0.100894 0.0656,-0.171521 0.0706,-0.07063 0.24719,-0.07063 0.17657,0 0.24215,0.07063 0.0706,0.07063 0.0706,0.171521 v 0.110984 q 0,0.100895 -0.0706,0.171521 -0.0656,0.07063 -0.24215,0.07063 z"
         id="path3947"
         style="stroke-width:0" />
      <path
         d="m 153.65473,35.325792 q -0.32286,0 -0.55492,-0.121074 -0.23206,-0.126118 -0.3834,-0.358176 -0.15134,-0.232057 -0.22197,-0.570054 -0.0706,-0.337997 -0.0706,-0.771844 0,-0.428802 0.0706,-0.766799 0.0706,-0.343042 0.22197,-0.575099 0.15134,-0.232058 0.3834,-0.353131 0.23206,-0.126118 0.55492,-0.126118 0.32286,0 0.55492,0.126118 0.23206,0.121073 0.3834,0.353131 0.15134,0.232057 0.22197,0.575099 0.0706,0.337997 0.0706,0.766799 0,0.433847 -0.0706,0.771844 -0.0706,0.337997 -0.22197,0.570054 -0.15134,0.232058 -0.3834,0.358176 -0.23206,0.121074 -0.55492,0.121074 z m 0,-0.368266 q 0.21188,0 0.36322,-0.08072 0.15134,-0.08576 0.24215,-0.237103 0.0959,-0.151341 0.14125,-0.36322 0.0454,-0.216924 0.0454,-0.484294 V 33.21709 q 0,-0.262326 -0.0454,-0.47925 -0.0454,-0.216923 -0.14125,-0.368265 -0.0908,-0.151342 -0.24215,-0.232058 -0.15134,-0.08576 -0.36322,-0.08576 -0.21188,0 -0.36322,0.08576 -0.15134,0.08072 -0.24719,0.232058 -0.0908,0.151342 -0.13621,0.368265 -0.0454,0.216924 -0.0454,0.47925 v 0.575099 q 0,0.26737 0.0454,0.484294 0.0454,0.211879 0.13621,0.36322 0.0959,0.151342 0.24719,0.237103 0.15134,0.08072 0.36322,0.08072 z m 0,-1.155243 q -0.17656,0 -0.24719,-0.07063 -0.0656,-0.07063 -0.0656,-0.171521 v -0.110984 q 0,-0.100894 0.0656,-0.171521 0.0706,-0.07063 0.24719,-0.07063 0.17657,0 0.24215,0.07063 0.0706,0.07063 0.0706,0.171521 v 0.110984 q 0,0.100895 -0.0706,0.171521 -0.0656,0.07063 -0.24215,0.07063 z"
         id="path3949"
         style="stroke-width:0" />
      <path
         d="m 155.64235,35.265255 v -0.610412 h 0.94841 v -2.360934 h -0.0454 l -0.71635,0.93832 -0.48429,-0.378355 0.84247,-1.109841 h 1.16029 v 2.91081 h 0.74662 v 0.610412 z"
         style="font-weight:bold;stroke-width:0"
         id="path3951" />
      <path
         d="m 146.56186,40.914105 v -0.610412 h 0.9484 v -2.360934 h -0.0454 l -0.71635,0.93832 -0.48429,-0.378355 0.84247,-1.109841 h 1.16028 v 2.91081 h 0.74662 v 0.610412 z"
         style="font-weight:bold;stroke-width:0"
         id="path3953" />
      <path
         d="m 149.58869,40.914105 v -0.610412 h 0.94841 v -2.360934 h -0.0454 l -0.71635,0.93832 -0.48429,-0.378355 0.84247,-1.109841 h 1.16028 v 2.91081 h 0.74662 v 0.610412 z"
         style="font-weight:bold;stroke-width:0"
         id="path3955" />
      <path
         d="m 153.65473,40.974642 q -0.32286,0 -0.55492,-0.121074 -0.23206,-0.126118 -0.3834,-0.358176 -0.15134,-0.232057 -0.22197,-0.570054 -0.0706,-0.337997 -0.0706,-0.771844 0,-0.428802 0.0706,-0.766799 0.0706,-0.343042 0.22197,-0.575099 0.15134,-0.232058 0.3834,-0.353131 0.23206,-0.126118 0.55492,-0.126118 0.32286,0 0.55492,0.126118 0.23206,0.121073 0.3834,0.353131 0.15134,0.232057 0.22197,0.575099 0.0706,0.337997 0.0706,0.766799 0,0.433847 -0.0706,0.771844 -0.0706,0.337997 -0.22197,0.570054 -0.15134,0.232058 -0.3834,0.358176 -0.23206,0.121074 -0.55492,0.121074 z m 0,-0.368266 q 0.21188,0 0.36322,-0.08071 0.15134,-0.08576 0.24215,-0.237103 0.0959,-0.151342 0.14125,-0.36322 0.0454,-0.216924 0.0454,-0.484294 v -0.5751 q 0,-0.262325 -0.0454,-0.479249 -0.0454,-0.216923 -0.14125,-0.368265 -0.0908,-0.151342 -0.24215,-0.232058 -0.15134,-0.08576 -0.36322,-0.08576 -0.21188,0 -0.36322,0.08576 -0.15134,0.08072 -0.24719,0.232058 -0.0908,0.151342 -0.13621,0.368265 -0.0454,0.216924 -0.0454,0.479249 v 0.5751 q 0,0.26737 0.0454,0.484294 0.0454,0.211878 0.13621,0.36322 0.0959,0.151342 0.24719,0.237103 0.15134,0.08071 0.36322,0.08071 z m 0,-1.155243 q -0.17656,0 -0.24719,-0.07063 -0.0656,-0.07063 -0.0656,-0.171521 v -0.110984 q 0,-0.100895 0.0656,-0.171521 0.0706,-0.07063 0.24719,-0.07063 0.17657,0 0.24215,0.07063 0.0706,0.07063 0.0706,0.171521 v 0.110984 q 0,0.100895 -0.0706,0.171521 -0.0656,0.07063 -0.24215,0.07063 z"
         id="path3957"
         style="stroke-width:0" />
      <path
         d="m 155.64235,40.914105 v -0.610412 h 0.94841 v -2.360934 h -0.0454 l -0.71635,0.93832 -0.48429,-0.378355 0.84247,-1.109841 h 1.16029 v 2.91081 h 0.74662 v 0.610412 z"
         style="font-weight:bold;stroke-width:0"
         id="path3959" />
      <path
         d="m 146.56186,46.562955 v -0.610412 h 0.9484 v -2.360934 h -0.0454 l -0.71635,0.93832 -0.48429,-0.378355 0.84247,-1.109841 h 1.16028 v 2.91081 h 0.74662 v 0.610412 z"
         style="font-weight:bold;stroke-width:0"
         id="path3961" />
      <path
         d="m 150.6279,46.623492 q -0.32286,0 -0.55492,-0.121074 -0.23206,-0.126118 -0.3834,-0.358176 -0.15134,-0.232057 -0.22197,-0.570054 -0.0706,-0.337997 -0.0706,-0.771844 0,-0.428802 0.0706,-0.766799 0.0706,-0.343042 0.22197,-0.575099 0.15134,-0.232058 0.3834,-0.353131 0.23206,-0.126119 0.55492,-0.126119 0.32286,0 0.55492,0.126119 0.23206,0.121073 0.3834,0.353131 0.15134,0.232057 0.22197,0.575099 0.0706,0.337997 0.0706,0.766799 0,0.433847 -0.0706,0.771844 -0.0706,0.337997 -0.22197,0.570054 -0.15134,0.232058 -0.3834,0.358176 -0.23206,0.121074 -0.55492,0.121074 z m 0,-0.368266 q 0.21188,0 0.36322,-0.08071 0.15134,-0.08576 0.24215,-0.237103 0.0958,-0.151342 0.14125,-0.36322 0.0454,-0.216924 0.0454,-0.484294 v -0.5751 q 0,-0.262326 -0.0454,-0.479249 -0.0454,-0.216923 -0.14125,-0.368265 -0.0908,-0.151342 -0.24215,-0.232058 -0.15134,-0.08576 -0.36322,-0.08576 -0.21188,0 -0.36322,0.08576 -0.15134,0.08072 -0.24719,0.232058 -0.0908,0.151342 -0.13621,0.368265 -0.0454,0.216923 -0.0454,0.479249 v 0.5751 q 0,0.26737 0.0454,0.484294 0.0454,0.211878 0.13621,0.36322 0.0958,0.151342 0.24719,0.237103 0.15134,0.08071 0.36322,0.08071 z m 0,-1.155243 q -0.17657,0 -0.24719,-0.07063 -0.0656,-0.07063 -0.0656,-0.171521 v -0.110984 q 0,-0.100895 0.0656,-0.171521 0.0706,-0.07063 0.24719,-0.07063 0.17657,0 0.24215,0.07063 0.0706,0.07063 0.0706,0.171521 v 0.110984 q 0,0.100895 -0.0706,0.171521 -0.0656,0.07063 -0.24215,0.07063 z"
         id="path3963"
         style="stroke-width:0" />
      <path
         d="m 152.61552,46.562955 v -0.610412 h 0.94841 v -2.360934 h -0.0454 l -0.71635,0.93832 -0.48429,-0.378355 0.84247,-1.109841 h 1.16029 v 2.91081 h 0.74662 v 0.610412 z"
         style="font-weight:bold;stroke-width:0"
         id="path3965" />
      <path
         d="m 155.64235,46.562955 v -0.610412 h 0.94841 v -2.360934 h -0.0454 l -0.71635,0.93832 -0.48429,-0.378355 0.84247,-1.109841 h 1.16029 v 2.91081 h 0.74662 v 0.610412 z"
         style="font-weight:bold;stroke-width:0"
         id="path3967" />
    </g>
    <path
       style="fill:#000000;fill-opacity:1;stroke:#000000;stroke-width:2;stroke-linejoin:round;stroke-dasharray:none;stroke-dashoffset:0;stop-color:#000000"
       d="m 68.586869,27.371822 v 3.166697"
       id="path3970" />
    <g
       id="g5586"
       transform="matrix(1.2604831,0.38123137,-0.3794802,1.2546931,5.201896,-39.153921)"
       style="stroke-width:1.52225;stroke-dasharray:none">
      <g
         id="g3978"
         transform="matrix(-0.60558151,-0.2089572,0.2100241,-0.6086735,95.161458,148.12507)"
         style="stroke:#ff0000;stroke-width:2.37018;stroke-dasharray:none" />
      <g
         id="g1023"
         transform="matrix(0.60878919,0.1993283,-0.2004345,0.61192808,36.906272,-33.137564)"
         style="stroke:#ff0000;stroke-width:2.37018;stroke-dasharray:none">
        <path
           style="fill:#000000;fill-opacity:0;stroke:#ff0000;stroke-width:2.37018;stroke-linejoin:round;stroke-dasharray:none;stop-color:#000000"
           d="m 93.268121,92.098132 -17.61865,24.854868 10.18323,10.87009 14.986269,-6.78005 z"
           id="path460" />
        <path
           style="fill:#000000;fill-opacity:0;stroke:#ff0000;stroke-width:2.37018;stroke-linejoin:round;stroke-dasharray:none;stop-color:#000000"
           d="M 93.268119,92.098131 85.8327,127.82309"
           id="path462" />
        <path
           style="fill:#000000;fill-opacity:0;stroke:#ff0000;stroke-width:2.37018;stroke-linejoin:round;stroke-dasharray:2.37018, 2.37018;stroke-dashoffset:0;stop-color:#000000"
           d="m 75.64947,116.953 25.1695,4.09004"
           id="path464" />
      </g>
    </g>
    <path
       style="fill:#000000;fill-opacity:1;stroke:#000000;stroke-width:2;stroke-linejoin:round;stroke-dasharray:none;stroke-dashoffset:0;stop-color:#000000"
       d="m 47.243433,36.204612 3.598206,3.598206"
       id="path5657" />
    <path
       style="fill:#000000;fill-opacity:1;stroke:#000000;stroke-width:2;stroke-linejoin:round;stroke-dasharray:none;stroke-dashoffset:0;stop-color:#000000"
       d="m 86.359261,75.320437 3.598206,3.598206"
       id="path5659" />
    <path
       style="fill:#000000;fill-opacity:1;stroke:#000000;stroke-width:2;stroke-linejoin:round;stroke-dasharray:none;stroke-dashoffset:0;stop-color:#000000"
       d="m 50.841639,75.320437 -3.598206,3.598206"
       id="path5661" />
    <path
       style="fill:#000000;fill-opacity:1;stroke:#000000;stroke-width:2;stroke-linejoin:round;stroke-dasharray:none;stroke-dashoffset:0;stop-color:#000000"
       d="m 89.957467,36.204612 -3.598206,3.598206"
       id="path5663" />
    <circle
       style="fill:#000000;fill-opacity:0;stroke:#000000;stroke-width:2.99999;stroke-linejoin:round;stroke-dasharray:none;stop-color:#000000"
       id="circle7162"
       cx="68.586868"
       cy="57.575211"
       r="34.723721" />
  </g>
</svg>
